<?xml version="1.0" encoding="UTF-8" standalone="no"?>
<!-- Generator: Adobe Illustrator 13.0.0, SVG Export Plug-In . SVG Version: 6.00 Build 14948)  -->

<svg
   xmlns:dc="http://purl.org/dc/elements/1.1/"
   xmlns:cc="http://creativecommons.org/ns#"
   xmlns:rdf="http://www.w3.org/1999/02/22-rdf-syntax-ns#"
   xmlns:svg="http://www.w3.org/2000/svg"
   xmlns="http://www.w3.org/2000/svg"
   xmlns:sodipodi="http://sodipodi.sourceforge.net/DTD/sodipodi-0.dtd"
   xmlns:inkscape="http://www.inkscape.org/namespaces/inkscape"
   version="1.1"
   id="Layer_1"
   x="0px"
   y="0px"
   width="500px"
   height="500px"
   viewBox="0 0 500 500"
   enable-background="new 0 0 500 500"
   xml:space="preserve"
   inkscape:version="0.48.5 r10040"
   sodipodi:docname="ic_launcher-web.svg"><metadata
     id="metadata3006"><rdf:RDF><cc:Work
         rdf:about=""><dc:format>image/svg+xml</dc:format><dc:type
           rdf:resource="http://purl.org/dc/dcmitype/StillImage" /></cc:Work></rdf:RDF></metadata><defs
     id="defs3004" /><sodipodi:namedview
     pagecolor="#ffffff"
     bordercolor="#666666"
     borderopacity="1"
     objecttolerance="10"
     gridtolerance="10"
     guidetolerance="10"
     inkscape:pageopacity="0"
     inkscape:pageshadow="2"
     inkscape:window-width="1280"
     inkscape:window-height="745"
     id="namedview3002"
     showgrid="false"
     inkscape:snap-bbox="true"
     inkscape:bbox-paths="true"
     inkscape:bbox-nodes="true"
     inkscape:snap-bbox-edge-midpoints="true"
     inkscape:snap-bbox-midpoints="true"
     inkscape:object-paths="true"
     inkscape:snap-intersection-paths="true"
     inkscape:object-nodes="true"
     inkscape:snap-smooth-nodes="true"
     inkscape:snap-midpoints="true"
     inkscape:snap-object-midpoints="true"
     inkscape:snap-center="true"
     showguides="true"
     inkscape:guide-bbox="true"
     inkscape:zoom="1.1"
     inkscape:cx="236.36364"
     inkscape:cy="250"
     inkscape:window-x="-4"
     inkscape:window-y="34"
     inkscape:window-maximized="1"
     inkscape:current-layer="layer2" /><g
     id="max_width__x2F__height"
     display="none"><path
       display="inline"
       d="M499.001,1v498H1V1H499.001 M500.001,0H0v500h500.001V0L500.001,0z"
       id="path2987" /></g><g
     inkscape:groupmode="layer"
     id="layer1"
     inkscape:label="bg"
     sodipodi:insensitive="true" /><g
     inkscape:groupmode="layer"
     id="layer2"
     inkscape:label="dibujo"
     style="display:inline;opacity:1"><path
       id="path2992"
       d="m 204.89784,122.97293 c -6.59986,0 -11.94759,-5.53375 -11.94759,-12.36216 0,-6.82739 5.34476,-12.363192 11.94759,-12.363192 6.59491,0 11.94067,5.533752 11.94067,12.363192 9.9e-4,6.82738 -5.34576,12.36216 -11.94067,12.36216"
       inkscape:connector-curvature="0"
       style="fill:#ffffff;fill-opacity:1" /><path
       id="path2994"
       d="m 295.10315,122.97293 c -6.59491,0 -11.94166,-5.53375 -11.94166,-12.36216 0,-6.82944 5.34675,-12.363192 11.94166,-12.363192 6.60184,0 11.9466,5.535802 11.9466,12.363192 0,6.82738 -5.34674,12.36216 -11.9466,12.36216"
       inkscape:connector-curvature="0"
       style="fill:#ffffff;fill-opacity:1" /><path
       id="path2996"
       d="M 140,295.18543 C 140,308.8898 128.80699,320 114.99949,320 l 0,0 C 101.193,320 90,308.8898 90,295.18543 V 194.81456 C 90,181.11021 101.193,170 114.99949,170 l 0,0 C 128.80699,170 140,181.11021 140,194.81456 v 100.37087 z"
       inkscape:connector-curvature="0"
       style="fill:#9fbf3b" /><path
       id="path3000"
       d="M 360,295.18544 C 360,308.8898 371.19221,320 385,320 l 0,0 c 13.80677,0 25,-11.1102 25,-24.81456 V 194.81456 C 410,181.11021 398.80677,170 385,170 l 0,0 c -13.80779,0 -25,11.11021 -25,24.81456 v 100.37088 z"
       inkscape:connector-curvature="0"
       style="fill:#9fbf3b" /><path
       inkscape:connector-curvature="0"
       style="fill:#9fbf3b;fill-opacity:1;stroke:none;display:inline"
       d="m 179.64787,35.009872 c -0.50781,0.05379 -1.00534,0.241419 -1.44862,0.559603 -1.57608,1.134481 -1.86757,3.563557 -0.66131,5.398531 L 197.4091,71.153692 C 163.20377,86.796583 140,117.22299 140,152.19749 c 0,47.05896 42.01314,85.88742 96.30117,91.54461 l 1.60607,11.2579 24.18552,0 1.60607,-11.2579 C 317.98686,238.08491 360,199.25645 360,152.19749 360,117.22299 336.79624,86.796583 302.5909,71.153692 l 19.87117,-30.185686 c 1.20625,-1.832867 0.91577,-4.227971 -0.66132,-5.365612 -1.57509,-1.131322 -3.84147,-0.584097 -5.03866,1.250878 l -20.78442,31.53532 c -11.96864,-4.627026 -25.06986,-7.493103 -38.89207,-8.229468 -0.47288,-0.0271 -0.94262,-0.04413 -1.41712,-0.06583 -0.86461,-0.03676 -1.74402,-0.07884 -2.61379,-0.09875 -0.073,-0.0017 -0.14745,0.0016 -0.22045,0 -0.94349,-0.02005 -1.88498,-0.03291 -2.83424,-0.03291 -1.89792,0 -3.79424,0.04605 -5.66847,0.131671 -0.47453,0.02168 -0.94421,0.03875 -1.41713,0.06583 -13.82221,0.736365 -26.95493,3.602442 -38.92356,8.229468 L 183.23791,36.853272 c -0.75642,-1.145542 -1.93428,-1.794024 -3.08617,-1.8434 -0.17279,-0.0074 -0.3346,-0.01793 -0.50387,0 z"
       id="path2990" /><path
       sodipodi:type="arc"
       style="fill:#ffffff;fill-opacity:1;display:inline"
       id="path3855-5-9"
       sodipodi:cx="110.24438"
       sodipodi:cy="109.1628"
       sodipodi:rx="8.3567162"
       sodipodi:ry="9.3209534"
       d="m 118.60109,109.1628 a 8.3567162,9.3209534 0 1 1 -16.71343,0 8.3567162,9.3209534 0 1 1 16.71343,0 z"
       transform="matrix(0.83764958,0,0,0.75099613,157.65829,150.76836)" /><text
       xml:space="preserve"
       style="font-size:88.2598877px;font-style:normal;font-variant:normal;font-weight:normal;font-stretch:normal;text-align:start;line-height:125%;letter-spacing:0px;word-spacing:0px;writing-mode:lr-tb;text-anchor:start;fill:#9fbf3b;fill-opacity:1;stroke:none;font-family:Alsina;-inkscape-font-specification:Alsina"
       x="73.431572"
       y="444.53983"
       id="text4033"
       sodipodi:linespacing="125%"
       transform="scale(1.0049018,0.99512211)"><tspan
         sodipodi:role="line"
         id="tspan4035"
         x="73.431572"
         y="444.53983">ESCOLAZO!</tspan></text>
<path
       sodipodi:type="arc"
       style="fill:#ffffff;fill-opacity:1;display:inline"
       id="path3855-5-9-5"
       sodipodi:cx="110.24438"
       sodipodi:cy="109.1628"
       sodipodi:rx="8.3567162"
       sodipodi:ry="9.3209534"
       d="m 118.60109,109.1628 a 8.3567162,9.3209534 0 1 1 -16.71343,0 8.3567162,9.3209534 0 1 1 16.71343,0 z"
       transform="matrix(0.83764958,0,0,0.75099613,112.54822,28.629406)" /><path
       sodipodi:type="arc"
       style="fill:#ffffff;fill-opacity:1;display:inline"
       id="path3855-5-9-5-0"
       sodipodi:cx="110.24438"
       sodipodi:cy="109.1628"
       sodipodi:rx="8.3567162"
       sodipodi:ry="9.3209534"
       d="m 118.60109,109.1628 a 8.3567162,9.3209534 0 1 1 -16.71343,0 8.3567162,9.3209534 0 1 1 16.71343,0 z"
       transform="matrix(0.83764958,0,0,0.75099613,202.75946,28.629406)" /><path
       sodipodi:type="arc"
       style="fill:#ffffff;fill-opacity:1;display:inline"
       id="path3855-5-9-5-9"
       sodipodi:cx="110.24438"
       sodipodi:cy="109.1628"
       sodipodi:rx="8.3567162"
       sodipodi:ry="9.3209534"
       d="m 118.60109,109.1628 a 8.3567162,9.3209534 0 1 1 -16.71343,0 8.3567162,9.3209534 0 1 1 16.71343,0 z"
       transform="matrix(0.83764958,0,0,0.75099614,89.199295,74.65552)" /><path
       sodipodi:type="arc"
       style="fill:#ffffff;fill-opacity:1;display:inline"
       id="path3855-5-9-5-9-3"
       sodipodi:cx="110.24438"
       sodipodi:cy="109.1628"
       sodipodi:rx="8.3567162"
       sodipodi:ry="9.3209534"
       d="m 118.60109,109.1628 a 8.3567162,9.3209534 0 1 1 -16.71343,0 8.3567162,9.3209534 0 1 1 16.71343,0 z"
       transform="matrix(0.83764958,0,0,0.75099614,196.74475,109.83734)" /><path
       sodipodi:type="arc"
       style="fill:#ffffff;fill-opacity:1;display:inline"
       id="path3855-5-9-5-9-4"
       sodipodi:cx="110.24438"
       sodipodi:cy="109.1628"
       sodipodi:rx="8.3567162"
       sodipodi:ry="9.3209534"
       d="m 118.60109,109.1628 a 8.3567162,9.3209534 0 1 1 -16.71343,0 8.3567162,9.3209534 0 1 1 16.71343,0 z"
       transform="matrix(0.83764958,0,0,0.75099614,232.1993,70.746428)" /><path
       sodipodi:type="arc"
       style="fill:#ffffff;fill-opacity:1;display:inline"
       id="path3855-5-9-5-9-5"
       sodipodi:cx="110.24438"
       sodipodi:cy="109.1628"
       sodipodi:rx="8.3567162"
       sodipodi:ry="9.3209534"
       d="m 118.60109,109.1628 a 8.3567162,9.3209534 0 1 1 -16.71343,0 8.3567162,9.3209534 0 1 1 16.71343,0 z"
       transform="matrix(0.83764958,0,0,0.75099614,148.10839,63.928246)" /><path
       sodipodi:type="arc"
       style="fill:#ffffff;fill-opacity:1;display:inline"
       id="path3855-5-9-5-9-43"
       sodipodi:cx="110.24438"
       sodipodi:cy="109.1628"
       sodipodi:rx="8.3567162"
       sodipodi:ry="9.3209534"
       d="m 118.60109,109.1628 a 8.3567162,9.3209534 0 1 1 -16.71343,0 8.3567162,9.3209534 0 1 1 16.71343,0 z"
       transform="matrix(0.83764958,0,0,0.75099614,161.74475,22.56461)" /><path
       sodipodi:type="arc"
       style="fill:#ffffff;fill-opacity:1;display:inline"
       id="path3855-5-9-5-9-0"
       sodipodi:cx="110.24438"
       sodipodi:cy="109.1628"
       sodipodi:rx="8.3567162"
       sodipodi:ry="9.3209534"
       d="m 118.60109,109.1628 a 8.3567162,9.3209534 0 1 1 -16.71343,0 8.3567162,9.3209534 0 1 1 16.71343,0 z"
       transform="matrix(0.83764958,0,0,0.75099614,131.29021,124.38279)" /><path
       sodipodi:type="arc"
       style="fill:#ffffff;fill-opacity:1;display:inline"
       id="path3855-5-9-5-9-53"
       sodipodi:cx="110.24438"
       sodipodi:cy="109.1628"
       sodipodi:rx="8.3567162"
       sodipodi:ry="9.3209534"
       d="m 118.60109,109.1628 a 8.3567162,9.3209534 0 1 1 -16.71343,0 8.3567162,9.3209534 0 1 1 16.71343,0 z"
       transform="matrix(0.83764958,0,0,0.75099614,168.56293,115.29188)" /><path
       sodipodi:type="arc"
       style="fill:#ffffff;fill-opacity:1;display:inline"
       id="path3855-5-9-5-9-59"
       sodipodi:cx="110.24438"
       sodipodi:cy="109.1628"
       sodipodi:rx="8.3567162"
       sodipodi:ry="9.3209534"
       d="m 118.60109,109.1628 a 8.3567162,9.3209534 0 1 1 -16.71343,0 8.3567162,9.3209534 0 1 1 16.71343,0 z"
       transform="matrix(0.83764958,0,0,0.75099614,231.74475,115.29188)" /><path
       sodipodi:type="arc"
       style="fill:#ffffff;fill-opacity:1;display:inline"
       id="path3855-5-9-5-9-4-8"
       sodipodi:cx="110.24438"
       sodipodi:cy="109.1628"
       sodipodi:rx="8.3567162"
       sodipodi:ry="9.3209534"
       d="m 118.60109,109.1628 a 8.3567162,9.3209534 0 1 1 -16.71343,0 8.3567162,9.3209534 0 1 1 16.71343,0 z"
       transform="matrix(0.83764958,0,0,0.75099614,188.56293,69.837338)" /><path
       sodipodi:type="arc"
       style="fill:#ffffff;fill-opacity:1;display:inline"
       id="path3855-5-9-5-9-4-5"
       sodipodi:cx="110.24438"
       sodipodi:cy="109.1628"
       sodipodi:rx="8.3567162"
       sodipodi:ry="9.3209534"
       d="m 118.60109,109.1628 a 8.3567162,9.3209534 0 1 1 -16.71343,0 8.3567162,9.3209534 0 1 1 16.71343,0 z"
       transform="matrix(0.83764958,0,0,0.75099614,144.92657,-6.5262987)" /><path
       sodipodi:type="arc"
       style="fill:#ffffff;fill-opacity:1;display:inline"
       id="path3855-5-9-5-9-4-6"
       sodipodi:cx="110.24438"
       sodipodi:cy="109.1628"
       sodipodi:rx="8.3567162"
       sodipodi:ry="9.3209534"
       d="m 118.60109,109.1628 a 8.3567162,9.3209534 0 1 1 -16.71343,0 8.3567162,9.3209534 0 1 1 16.71343,0 z"
       transform="matrix(0.83764958,0,0,0.75099614,78.562935,47.110065)" /><path
       sodipodi:type="arc"
       style="fill:#ffffff;fill-opacity:1;display:inline"
       id="path3855-5-9-5-9-4-7"
       sodipodi:cx="110.24438"
       sodipodi:cy="109.1628"
       sodipodi:rx="8.3567162"
       sodipodi:ry="9.3209534"
       d="m 118.60109,109.1628 a 8.3567162,9.3209534 0 1 1 -16.71343,0 8.3567162,9.3209534 0 1 1 16.71343,0 z"
       transform="matrix(0.83764958,0,0,0.75099614,92.199298,106.20097)" /><path
       sodipodi:type="arc"
       style="fill:#ffffff;fill-opacity:1;display:inline"
       id="path3855-5-9-5-9-4-0"
       sodipodi:cx="110.24438"
       sodipodi:cy="109.1628"
       sodipodi:rx="8.3567162"
       sodipodi:ry="9.3209534"
       d="m 118.60109,109.1628 a 8.3567162,9.3209534 0 1 1 -16.71343,0 8.3567162,9.3209534 0 1 1 16.71343,0 z"
       transform="matrix(0.83764958,0,0,0.75099614,120.38112,61.655519)" /><path
       sodipodi:type="arc"
       style="fill:#ffffff;fill-opacity:1;display:inline"
       id="path3855-5-9-5-9-4-4"
       sodipodi:cx="110.24438"
       sodipodi:cy="109.1628"
       sodipodi:rx="8.3567162"
       sodipodi:ry="9.3209534"
       d="m 118.60109,109.1628 a 8.3567162,9.3209534 0 1 1 -16.71343,0 8.3567162,9.3209534 0 1 1 16.71343,0 z"
       transform="matrix(0.83764958,0,0,0.75099614,144.01748,91.655519)" /></g></svg>